<?xml version="1.0" standalone="no"?>
<!DOCTYPE svg PUBLIC "-//W3C//DTD SVG 20010904//EN"
 "http://www.w3.org/TR/2001/REC-SVG-20010904/DTD/svg10.dtd">
<svg version="1.0" xmlns="http://www.w3.org/2000/svg"
 width="900.000000pt" height="900.000000pt" viewBox="0 0 900.000000 900.000000"
 preserveAspectRatio="xMidYMid meet">
<metadata>
Created by potrace 1.10, written by Peter Selinger 2001-2011
</metadata>
<g transform="translate(0.000000,900.000000) scale(0.100000,-0.100000)"
fill="#000000" stroke="none">
<path d="M2525 8604 c-82 -20 -157 -71 -210 -143 -64 -88 -69 -112 -75 -361
l-5 -225 -215 -6 c-242 -7 -299 -13 -385 -41 -153 -50 -276 -140 -373 -271
-86 -116 -125 -222 -141 -381 -15 -153 -15 -5219 0 -5372 16 -159 55 -265 141
-381 132 -179 307 -278 536 -302 142 -15 1517 -15 1615 0 150 23 252 106 306
250 66 171 -31 389 -204 462 -78 33 -180 37 -908 37 -396 0 -724 3 -729 8 -11
11 -11 4093 0 4104 4 4 1182 7 2618 6 l2609 -3 6 -400 c6 -393 11 -455 40
-505 46 -81 92 -127 173 -175 49 -29 56 -30 166 -30 109 0 118 2 166 30 83 48
129 96 176 180 34 63 38 168 38 1084 0 933 -5 1065 -42 1175 -77 233 -253 409
-483 484 -86 28 -143 34 -385 41 l-215 6 -5 225 c-7 258 -12 281 -88 375 -32
40 -68 70 -112 94 -63 35 -68 36 -170 36 -82 0 -115 -4 -150 -19 -91 -40 -169
-122 -208 -218 -13 -34 -18 -89 -22 -268 l-5 -225 -1495 0 -1495 0 -5 225 c-4
179 -9 234 -22 268 -38 94 -114 175 -203 216 -40 18 -195 31 -240 20z"/>
<path d="M3275 4104 c-122 -30 -222 -125 -266 -251 -17 -50 -19 -85 -19 -302
0 -212 3 -254 18 -296 27 -75 46 -107 93 -154 148 -147 380 -147 528 0 47 47
66 79 93 154 16 42 18 84 18 300 0 228 -2 255 -21 304 -39 103 -111 182 -204
225 -40 18 -195 31 -240 20z"/>
<path d="M5755 4100 c-16 -4 -55 -18 -85 -30 -30 -12 -66 -25 -80 -30 -14 -5
-50 -18 -80 -30 -30 -12 -68 -25 -85 -30 -16 -5 -55 -18 -85 -30 -30 -11 -86
-32 -125 -45 -38 -13 -95 -33 -125 -45 -30 -12 -86 -32 -125 -45 -38 -13 -95
-34 -125 -45 -30 -12 -64 -24 -75 -27 -70 -17 -160 -83 -206 -149 -123 -179
-78 -401 98 -484 98 -46 120 -42 448 76 55 19 107 36 115 37 13 2 16 -107 20
-908 6 -1005 1 -940 69 -1039 37 -54 78 -89 145 -124 46 -24 61 -27 161 -27
100 0 115 3 162 28 100 52 157 119 194 225 18 53 19 104 19 1338 l0 1282 -33
44 c-18 23 -44 48 -57 55 -28 14 -99 15 -145 3z"/>
<path d="M7615 4095 c-22 -9 -71 -27 -110 -40 -38 -13 -95 -33 -125 -45 -30
-12 -73 -28 -95 -36 -22 -9 -53 -19 -70 -24 -16 -4 -55 -18 -85 -30 -80 -31
-126 -48 -205 -75 -38 -13 -95 -33 -125 -45 -30 -12 -68 -26 -85 -30 -129 -36
-212 -87 -270 -165 -49 -66 -59 -87 -70 -160 -20 -129 9 -224 90 -292 45 -37
127 -71 175 -72 30 -1 117 24 255 74 177 63 186 66 201 63 13 -3 15 -111 14
-849 0 -868 3 -967 39 -1034 45 -85 98 -138 191 -190 29 -16 54 -20 147 -20
104 0 115 2 167 29 119 62 188 162 206 297 7 58 10 465 8 1309 -3 1174 -4
1227 -22 1263 -10 20 -32 47 -49 59 -39 28 -127 34 -182 13z"/>
</g>
</svg>
