<?xml version="1.0" standalone="no"?>
<!DOCTYPE svg PUBLIC "-//W3C//DTD SVG 20010904//EN"
 "http://www.w3.org/TR/2001/REC-SVG-20010904/DTD/svg10.dtd">
<svg version="1.0" xmlns="http://www.w3.org/2000/svg"
 width="900.000000pt" height="900.000000pt" viewBox="0 0 900.000000 900.000000"
 preserveAspectRatio="xMidYMid meet">
<metadata>
Created by potrace 1.10, written by Peter Selinger 2001-2011
</metadata>
<g transform="translate(0.000000,900.000000) scale(0.100000,-0.100000)"
fill="#000000" stroke="none">
<path d="M2525 8604 c-82 -20 -157 -71 -210 -143 -64 -88 -69 -112 -75 -361
l-5 -225 -215 -6 c-242 -7 -299 -13 -385 -41 -153 -50 -276 -140 -373 -271
-86 -116 -125 -222 -141 -381 -15 -153 -15 -5219 0 -5372 16 -159 55 -265 141
-381 132 -179 307 -278 536 -302 136 -15 1134 -15 1238 0 128 18 229 89 290
205 27 52 29 63 29 167 0 106 -2 115 -30 163 -50 86 -105 138 -185 177 -67 32
-172 37 -717 37 -295 0 -540 3 -545 8 -11 11 -11 4093 0 4104 4 4 1182 7 2618
6 l2609 -3 6 -400 c6 -393 11 -455 40 -505 46 -81 92 -127 173 -175 49 -29 56
-30 166 -30 109 0 118 2 166 30 83 48 129 96 176 180 34 63 38 168 38 1084 0
933 -5 1065 -42 1175 -77 233 -253 409 -483 484 -86 28 -143 34 -385 41 l-215
6 -5 225 c-7 258 -12 281 -88 375 -32 40 -68 70 -112 94 -63 35 -68 36 -170
36 -82 0 -115 -4 -150 -19 -91 -40 -169 -122 -208 -218 -13 -34 -18 -89 -22
-268 l-5 -225 -1495 0 -1495 0 -5 225 c-4 179 -9 234 -22 268 -38 94 -114 175
-203 216 -40 18 -195 31 -240 20z"/>
<path d="M6317 4108 c-143 -16 -252 -105 -306 -249 -20 -51 -21 -75 -21 -494
0 -419 1 -443 21 -494 39 -103 98 -170 190 -217 36 -18 82 -28 181 -39 399
-46 628 -158 702 -345 12 -29 20 -83 23 -155 5 -102 3 -113 -19 -154 -43 -79
-148 -112 -260 -81 -43 12 -104 77 -117 126 -22 78 -107 168 -200 211 -48 23
-69 26 -151 26 -84 0 -102 -3 -155 -29 -76 -36 -143 -103 -180 -179 -40 -81
-46 -197 -17 -282 108 -308 334 -513 672 -609 50 -15 99 -19 210 -19 l145 0
63 34 c34 19 62 37 62 41 0 3 24 17 53 29 206 90 300 148 404 251 104 104 164
199 214 340 22 60 24 81 23 255 -1 192 -7 231 -54 375 -21 62 -66 159 -104
225 -129 219 -342 412 -576 521 -93 44 -125 54 -215 70 -44 8 -98 18 -120 22
-32 6 -41 12 -43 31 -2 13 1 28 8 35 8 8 120 11 383 12 398 1 454 5 525 36 52
24 140 106 166 158 45 87 56 187 32 275 -21 74 -44 114 -101 171 -56 56 -119
89 -192 100 -64 10 -1159 11 -1246 2z"/>
<path d="M2885 4101 c-65 -17 -143 -73 -190 -136 -70 -91 -85 -166 -85 -409 0
-255 22 -351 102 -442 171 -195 493 -151 612 84 32 64 46 170 46 357 0 173
-14 296 -38 340 -47 84 -94 132 -175 179 -43 24 -62 28 -146 32 -53 2 -109 0
-126 -5z"/>
<path d="M5365 4095 c-22 -9 -71 -27 -110 -40 -38 -13 -95 -33 -125 -45 -30
-12 -73 -28 -95 -36 -22 -9 -53 -19 -70 -24 -16 -4 -55 -18 -85 -30 -30 -12
-86 -32 -125 -45 -79 -27 -125 -44 -205 -75 -30 -12 -68 -25 -85 -30 -111 -31
-183 -70 -246 -135 -56 -58 -79 -105 -93 -190 -28 -170 34 -288 181 -344 86
-33 100 -31 338 54 55 20 119 43 143 51 80 28 73 106 72 -837 0 -562 3 -872
11 -924 18 -134 83 -222 219 -300 29 -17 53 -20 150 -20 97 0 121 3 150 20
140 80 200 166 220 312 8 64 10 426 8 1308 -3 1211 -3 1220 -24 1259 -11 22
-32 49 -47 60 -35 26 -128 32 -182 11z"/>
</g>
</svg>
