<?xml version="1.0" standalone="no"?>
<!DOCTYPE svg PUBLIC "-//W3C//DTD SVG 20010904//EN"
 "http://www.w3.org/TR/2001/REC-SVG-20010904/DTD/svg10.dtd">
<svg version="1.0" xmlns="http://www.w3.org/2000/svg"
 width="900.000000pt" height="900.000000pt" viewBox="0 0 900.000000 900.000000"
 preserveAspectRatio="xMidYMid meet">
<metadata>
Created by potrace 1.10, written by Peter Selinger 2001-2011
</metadata>
<g transform="translate(0.000000,900.000000) scale(0.100000,-0.100000)"
fill="#000000" stroke="none">
<path d="M2525 8604 c-82 -20 -157 -71 -210 -143 -64 -88 -69 -112 -75 -361
l-5 -225 -215 -6 c-242 -7 -299 -13 -385 -41 -153 -50 -276 -140 -373 -271
-86 -116 -125 -222 -141 -381 -15 -153 -15 -5219 0 -5372 16 -159 55 -265 141
-381 132 -179 307 -278 536 -302 136 -15 1134 -15 1238 0 128 18 229 89 290
205 27 52 29 63 29 167 0 106 -2 115 -30 163 -50 86 -105 138 -185 177 -67 32
-172 37 -717 37 -295 0 -540 3 -545 8 -11 11 -11 4093 0 4104 4 4 1182 7 2618
6 l2609 -3 6 -400 c6 -393 11 -455 40 -505 46 -81 92 -127 173 -175 49 -29 56
-30 166 -30 109 0 118 2 166 30 83 48 129 96 176 180 34 63 38 168 38 1084 0
933 -5 1065 -42 1175 -77 233 -253 409 -483 484 -86 28 -143 34 -385 41 l-215
6 -5 225 c-7 258 -12 281 -88 375 -32 40 -68 70 -112 94 -63 35 -68 36 -170
36 -82 0 -115 -4 -150 -19 -91 -40 -169 -122 -208 -218 -13 -34 -18 -89 -22
-268 l-5 -225 -1495 0 -1495 0 -5 225 c-4 179 -9 234 -22 268 -38 94 -114 175
-203 216 -40 18 -195 31 -240 20z"/>
<path d="M6323 4108 c-94 -8 -151 -34 -221 -101 -125 -120 -149 -322 -56 -467
54 -85 153 -152 244 -166 30 -4 183 -8 340 -8 267 -1 285 -2 288 -19 3 -15
-86 -240 -165 -417 -29 -64 -36 -81 -148 -350 -99 -237 -99 -238 -118 -280 -8
-19 -49 -118 -92 -220 -42 -102 -83 -201 -92 -220 -70 -161 -102 -244 -120
-309 -16 -60 -16 -66 1 -135 10 -39 27 -88 38 -109 27 -53 92 -116 158 -152
52 -28 62 -30 165 -30 103 0 113 2 165 30 112 61 140 102 250 365 28 69 58
137 66 152 8 14 14 31 14 37 0 6 13 39 29 73 15 35 50 115 76 178 44 108 53
130 89 212 8 18 49 116 91 218 79 190 82 197 134 313 17 37 31 71 31 76 0 5 6
22 14 38 18 38 25 54 164 383 169 399 186 451 186 570 -1 111 -21 165 -87 237
-52 56 -115 89 -192 99 -75 9 -1140 11 -1252 2z"/>
<path d="M2885 4101 c-65 -17 -143 -73 -190 -136 -70 -91 -85 -166 -85 -409 0
-255 22 -351 102 -442 171 -195 493 -151 612 84 32 64 46 170 46 357 0 173
-14 296 -38 340 -47 84 -94 132 -175 179 -43 24 -62 28 -146 32 -53 2 -109 0
-126 -5z"/>
<path d="M5365 4095 c-22 -9 -71 -27 -110 -40 -38 -13 -95 -33 -125 -45 -30
-12 -73 -28 -95 -36 -22 -9 -53 -19 -70 -24 -16 -4 -55 -18 -85 -30 -30 -12
-86 -32 -125 -45 -79 -27 -125 -44 -205 -75 -30 -12 -68 -25 -85 -30 -109 -30
-185 -72 -248 -136 -53 -54 -79 -107 -92 -189 -27 -171 35 -288 182 -344 86
-33 100 -31 338 54 55 20 119 43 143 51 80 28 73 106 72 -838 0 -539 3 -874
10 -920 16 -112 61 -190 145 -253 88 -66 101 -70 225 -70 97 0 121 3 150 20
140 80 200 166 220 312 8 64 10 426 8 1308 -3 1211 -3 1220 -24 1259 -11 22
-32 49 -47 60 -35 26 -128 32 -182 11z"/>
</g>
</svg>
