<?xml version="1.0" standalone="no"?>
<!DOCTYPE svg PUBLIC "-//W3C//DTD SVG 20010904//EN"
 "http://www.w3.org/TR/2001/REC-SVG-20010904/DTD/svg10.dtd">
<svg version="1.0" xmlns="http://www.w3.org/2000/svg"
 width="900.000000pt" height="900.000000pt" viewBox="0 0 900.000000 900.000000"
 preserveAspectRatio="xMidYMid meet">
<metadata>
Created by potrace 1.10, written by Peter Selinger 2001-2011
</metadata>
<g transform="translate(0.000000,900.000000) scale(0.100000,-0.100000)"
fill="#000000" stroke="none">
<path d="M2525 8604 c-82 -20 -157 -71 -210 -143 -64 -88 -69 -112 -75 -361
l-5 -225 -215 -6 c-242 -7 -299 -13 -385 -41 -153 -50 -276 -140 -373 -271
-86 -116 -125 -222 -141 -381 -15 -153 -15 -5219 0 -5372 16 -159 55 -265 141
-381 132 -179 307 -278 536 -302 136 -15 1134 -15 1238 0 128 18 229 89 290
205 27 52 29 63 29 167 0 106 -2 115 -30 163 -50 86 -105 138 -185 177 -67 32
-172 37 -717 37 -295 0 -540 3 -545 8 -11 11 -11 4093 0 4104 4 4 1182 7 2618
6 l2609 -3 6 -400 c6 -393 11 -455 40 -505 46 -81 92 -127 173 -175 49 -29 56
-30 166 -30 109 0 118 2 166 30 83 48 129 96 176 180 34 63 38 168 38 1084 0
933 -5 1065 -42 1175 -77 233 -253 409 -483 484 -86 28 -143 34 -385 41 l-215
6 -5 225 c-7 258 -12 281 -88 375 -32 40 -68 70 -112 94 -63 35 -68 36 -170
36 -82 0 -115 -4 -150 -19 -91 -40 -169 -122 -208 -218 -13 -34 -18 -89 -22
-268 l-5 -225 -1495 0 -1495 0 -5 225 c-4 179 -9 234 -22 268 -38 94 -114 175
-203 216 -40 18 -195 31 -240 20z"/>
<path d="M2885 4101 c-65 -17 -143 -73 -190 -136 -70 -91 -85 -166 -85 -409 0
-255 22 -351 102 -442 171 -195 493 -151 612 84 32 64 46 170 46 357 0 173
-14 296 -38 340 -47 84 -94 132 -175 179 -43 24 -62 28 -146 32 -53 2 -109 0
-126 -5z"/>
<path d="M5365 4095 c-22 -9 -71 -27 -110 -40 -38 -13 -95 -33 -125 -45 -30
-12 -73 -28 -95 -36 -22 -9 -53 -19 -70 -24 -16 -4 -55 -18 -85 -30 -30 -12
-86 -32 -125 -45 -79 -27 -125 -44 -205 -75 -30 -12 -68 -25 -85 -30 -111 -31
-183 -70 -246 -135 -56 -58 -79 -105 -93 -190 -28 -170 34 -288 181 -344 86
-33 100 -31 338 54 55 20 119 43 143 51 80 28 73 106 72 -837 0 -562 3 -872
11 -924 18 -134 83 -222 219 -300 29 -17 53 -20 150 -20 97 0 121 3 150 20
140 80 200 166 220 312 8 64 10 426 8 1308 -3 1211 -3 1220 -24 1259 -11 22
-32 49 -47 60 -35 26 -128 32 -182 11z"/>
<path d="M6770 4101 c-290 -51 -555 -251 -682 -513 -142 -292 -128 -610 39
-885 23 -39 43 -79 43 -88 0 -9 -19 -49 -43 -88 -60 -101 -96 -192 -121 -307
-38 -177 -8 -393 82 -578 92 -191 254 -347 456 -442 138 -64 257 -85 441 -76
125 5 173 15 285 59 237 92 437 295 533 542 48 123 52 145 52 325 0 154 -3
183 -22 240 -39 116 -68 180 -103 235 -11 17 -27 44 -36 61 -18 33 -16 39 36
119 36 55 64 120 103 235 19 57 22 86 22 240 0 180 -4 202 -52 325 -97 250
-287 442 -538 545 -102 41 -153 51 -300 55 -82 2 -170 0 -195 -4z m268 -771
c76 -57 95 -190 37 -265 -86 -114 -258 -94 -318 37 -42 90 -5 192 88 243 44
24 152 16 193 -15z m-28 -1110 c61 -31 91 -79 97 -152 6 -83 -23 -141 -88
-176 -60 -33 -152 -27 -204 12 -69 53 -94 147 -58 224 45 98 160 140 253 92z"/>
</g>
</svg>
