<?xml version="1.0" standalone="no"?>
<!DOCTYPE svg PUBLIC "-//W3C//DTD SVG 20010904//EN"
 "http://www.w3.org/TR/2001/REC-SVG-20010904/DTD/svg10.dtd">
<svg version="1.0" xmlns="http://www.w3.org/2000/svg"
 width="900.000000pt" height="900.000000pt" viewBox="0 0 900.000000 900.000000"
 preserveAspectRatio="xMidYMid meet">
<metadata>
Created by potrace 1.10, written by Peter Selinger 2001-2011
</metadata>
<g transform="translate(0.000000,900.000000) scale(0.100000,-0.100000)"
fill="#000000" stroke="none">
<path d="M2525 8604 c-82 -20 -157 -71 -210 -143 -64 -88 -69 -112 -75 -361
l-5 -225 -215 -6 c-242 -7 -299 -13 -385 -41 -153 -50 -276 -140 -373 -271
-86 -116 -125 -222 -141 -381 -15 -153 -15 -5219 0 -5372 16 -159 55 -265 141
-381 132 -179 307 -278 536 -302 136 -15 1134 -15 1238 0 128 18 229 89 290
205 27 52 29 63 29 167 0 106 -2 115 -30 163 -50 86 -105 138 -185 177 -67 32
-172 37 -717 37 -295 0 -540 3 -545 8 -11 11 -11 4093 0 4104 4 4 1182 7 2618
6 l2609 -3 6 -400 c6 -393 11 -455 40 -505 46 -81 92 -127 173 -175 49 -29 56
-30 166 -30 109 0 118 2 166 30 83 48 129 96 176 180 34 63 38 168 38 1084 0
933 -5 1065 -42 1175 -77 233 -253 409 -483 484 -86 28 -143 34 -385 41 l-215
6 -5 225 c-7 258 -12 281 -88 375 -32 40 -68 70 -112 94 -63 35 -68 36 -170
36 -82 0 -115 -4 -150 -19 -91 -40 -169 -122 -208 -218 -13 -34 -18 -89 -22
-268 l-5 -225 -1495 0 -1495 0 -5 225 c-4 179 -9 234 -22 268 -38 94 -114 175
-203 216 -40 18 -195 31 -240 20z"/>
<path d="M2885 4101 c-65 -17 -143 -73 -190 -136 -70 -91 -85 -166 -85 -409 0
-255 22 -351 102 -442 171 -195 493 -151 612 84 32 64 46 170 46 357 0 173
-14 296 -38 340 -47 84 -94 132 -175 179 -43 24 -62 28 -146 32 -53 2 -109 0
-126 -5z"/>
<path d="M4960 4101 c-19 -4 -58 -19 -85 -33 -28 -14 -77 -33 -110 -43 -151
-47 -285 -124 -394 -229 -166 -161 -250 -355 -218 -507 27 -127 94 -215 203
-268 61 -30 76 -33 158 -33 170 0 266 63 351 230 51 98 83 128 149 139 91 15
168 -22 206 -98 27 -52 25 -103 -6 -185 -14 -38 -28 -78 -31 -88 -5 -17 -68
-140 -114 -226 -21 -39 -145 -225 -161 -241 -7 -8 -38 -45 -68 -84 -30 -38
-57 -72 -60 -75 -3 -3 -32 -36 -65 -75 -72 -85 -171 -189 -376 -394 -171 -170
-196 -207 -215 -316 -27 -153 25 -293 141 -380 67 -50 97 -63 178 -74 105 -15
1118 -15 1223 0 130 18 235 93 291 207 23 47 28 73 31 153 4 92 2 99 -29 163
-84 172 -202 226 -495 226 -78 0 -114 4 -114 11 0 6 29 42 63 79 90 95 306
387 340 460 4 8 17 31 28 50 130 214 209 480 209 699 0 92 -24 241 -48 301
-39 96 -50 122 -81 175 -135 235 -394 416 -651 455 -66 10 -201 10 -250 1z"/>
<path d="M7155 4104 c-104 -12 -244 -69 -370 -151 -154 -100 -290 -267 -353
-433 -65 -173 -72 -264 -72 -905 0 -634 8 -739 67 -890 96 -247 296 -450 533
-542 185 -72 421 -83 606 -30 273 79 519 312 619 588 9 24 25 84 36 133 18 83
19 132 19 741 0 609 -1 658 -19 741 -44 198 -120 341 -256 478 -114 116 -244
192 -425 251 -55 17 -290 29 -385 19z m260 -778 c19 -15 44 -45 55 -66 19 -38
20 -60 20 -645 0 -585 -1 -607 -20 -645 -11 -21 -36 -51 -57 -67 -32 -25 -45
-28 -112 -28 -65 0 -81 4 -109 24 -17 14 -41 43 -52 66 -19 40 -20 62 -20 650
0 593 1 610 20 651 35 70 83 95 178 90 49 -3 70 -9 97 -30z"/>
</g>
</svg>
